<svg width="212" height="44" viewBox="0 0 212 44" fill="none" xmlns="http://www.w3.org/2000/svg">
<path d="M204 0H8C3.58172 0 0 3.58172 0 8V36C0 40.4183 3.58172 44 8 44H204C208.418 44 212 40.4183 212 36V8C212 3.58172 208.418 0 204 0Z" fill="#FECC00"/>
<path d="M44 0V44" stroke="#323232"/>
<path d="M70.47 18.2H74.6C75.636 18.2 76.5553 18.4053 77.358 18.816C78.1607 19.2267 78.7813 19.8053 79.22 20.552C79.668 21.2893 79.892 22.1387 79.892 23.1C79.892 24.0613 79.668 24.9153 79.22 25.662C78.7813 26.3993 78.1607 26.9733 77.358 27.384C76.5553 27.7947 75.636 28 74.6 28H70.47V18.2ZM74.516 26.782C75.3093 26.782 76.0047 26.628 76.602 26.32C77.2087 26.012 77.6753 25.5827 78.002 25.032C78.3287 24.472 78.492 23.828 78.492 23.1C78.492 22.372 78.3287 21.7327 78.002 21.182C77.6753 20.622 77.2087 20.188 76.602 19.88C76.0047 19.572 75.3093 19.418 74.516 19.418H71.87V26.782H74.516ZM86.6004 28.112C85.6111 28.112 84.7197 27.8973 83.9264 27.468C83.1331 27.0293 82.5077 26.4273 82.0504 25.662C81.6024 24.8967 81.3784 24.0427 81.3784 23.1C81.3784 22.1573 81.6024 21.3033 82.0504 20.538C82.5077 19.7727 83.1331 19.1753 83.9264 18.746C84.7197 18.3073 85.6111 18.088 86.6004 18.088C87.5804 18.088 88.4671 18.3073 89.2604 18.746C90.0537 19.1753 90.6744 19.7727 91.1224 20.538C91.5704 21.294 91.7944 22.148 91.7944 23.1C91.7944 24.052 91.5704 24.9107 91.1224 25.676C90.6744 26.432 90.0537 27.0293 89.2604 27.468C88.4671 27.8973 87.5804 28.112 86.6004 28.112ZM86.6004 26.866C87.3191 26.866 87.9631 26.7027 88.5324 26.376C89.1111 26.0493 89.5637 25.6013 89.8904 25.032C90.2264 24.4533 90.3944 23.8093 90.3944 23.1C90.3944 22.3907 90.2264 21.7513 89.8904 21.182C89.5637 20.6033 89.1111 20.1507 88.5324 19.824C87.9631 19.4973 87.3191 19.334 86.6004 19.334C85.8817 19.334 85.2284 19.4973 84.6404 19.824C84.0617 20.1507 83.6044 20.6033 83.2684 21.182C82.9417 21.7513 82.7784 22.3907 82.7784 23.1C82.7784 23.8093 82.9417 24.4533 83.2684 25.032C83.6044 25.6013 84.0617 26.0493 84.6404 26.376C85.2284 26.7027 85.8817 26.866 86.6004 26.866ZM107.606 18.2L104.33 28H102.86L100.186 20.174L97.5118 28H96.0138L92.7378 18.2H94.1798L96.8258 26.166L99.5838 18.2H100.872L103.574 26.208L106.276 18.2H107.606ZM117.886 18.2V28H116.738L110.858 20.692V28H109.458V18.2H110.606L116.486 25.508V18.2H117.886ZM120.96 18.2H122.36V26.782H127.666V28H120.96V18.2ZM133.658 28.112C132.669 28.112 131.778 27.8973 130.984 27.468C130.191 27.0293 129.566 26.4273 129.108 25.662C128.66 24.8967 128.436 24.0427 128.436 23.1C128.436 22.1573 128.66 21.3033 129.108 20.538C129.566 19.7727 130.191 19.1753 130.984 18.746C131.778 18.3073 132.669 18.088 133.658 18.088C134.638 18.088 135.525 18.3073 136.318 18.746C137.112 19.1753 137.732 19.7727 138.18 20.538C138.628 21.294 138.852 22.148 138.852 23.1C138.852 24.052 138.628 24.9107 138.18 25.676C137.732 26.432 137.112 27.0293 136.318 27.468C135.525 27.8973 134.638 28.112 133.658 28.112ZM133.658 26.866C134.377 26.866 135.021 26.7027 135.59 26.376C136.169 26.0493 136.622 25.6013 136.948 25.032C137.284 24.4533 137.452 23.8093 137.452 23.1C137.452 22.3907 137.284 21.7513 136.948 21.182C136.622 20.6033 136.169 20.1507 135.59 19.824C135.021 19.4973 134.377 19.334 133.658 19.334C132.94 19.334 132.286 19.4973 131.698 19.824C131.12 20.1507 130.662 20.6033 130.326 21.182C130 21.7513 129.836 22.3907 129.836 23.1C129.836 23.8093 130 24.4533 130.326 25.032C130.662 25.6013 131.12 26.0493 131.698 26.376C132.286 26.7027 132.94 26.866 133.658 26.866ZM147.24 25.55H142.032L140.954 28H139.512L143.95 18.2H145.336L149.788 28H148.318L147.24 25.55ZM146.75 24.43L144.636 19.628L142.522 24.43H146.75ZM151.389 18.2H155.519C156.555 18.2 157.475 18.4053 158.277 18.816C159.08 19.2267 159.701 19.8053 160.139 20.552C160.587 21.2893 160.811 22.1387 160.811 23.1C160.811 24.0613 160.587 24.9153 160.139 25.662C159.701 26.3993 159.08 26.9733 158.277 27.384C157.475 27.7947 156.555 28 155.519 28H151.389V18.2ZM155.435 26.782C156.229 26.782 156.924 26.628 157.521 26.32C158.128 26.012 158.595 25.5827 158.921 25.032C159.248 24.472 159.411 23.828 159.411 23.1C159.411 22.372 159.248 21.7327 158.921 21.182C158.595 20.622 158.128 20.188 157.521 19.88C156.924 19.572 156.229 19.418 155.435 19.418H152.789V26.782H155.435ZM171.378 28.112C170.398 28.112 169.511 27.8973 168.718 27.468C167.934 27.0293 167.318 26.432 166.87 25.676C166.422 24.9107 166.198 24.052 166.198 23.1C166.198 22.148 166.422 21.294 166.87 20.538C167.318 19.7727 167.938 19.1753 168.732 18.746C169.525 18.3073 170.412 18.088 171.392 18.088C172.157 18.088 172.857 18.2187 173.492 18.48C174.126 18.732 174.668 19.11 175.116 19.614L174.206 20.496C173.468 19.7213 172.549 19.334 171.448 19.334C170.72 19.334 170.062 19.4973 169.474 19.824C168.886 20.1507 168.424 20.6033 168.088 21.182C167.761 21.7513 167.598 22.3907 167.598 23.1C167.598 23.8093 167.761 24.4533 168.088 25.032C168.424 25.6013 168.886 26.0493 169.474 26.376C170.062 26.7027 170.72 26.866 171.448 26.866C172.54 26.866 173.459 26.474 174.206 25.69L175.116 26.572C174.668 27.076 174.122 27.4587 173.478 27.72C172.843 27.9813 172.143 28.112 171.378 28.112ZM185.669 18.2L181.371 28H179.985L175.673 18.2H177.185L180.713 26.25L184.269 18.2H185.669Z" fill="#323232"/>
<path d="M22 14V25" stroke="#426AB2" stroke-width="2" stroke-linecap="round"/>
<path d="M17 22L21.9149 25.4415" stroke="#426AB2" stroke-width="2" stroke-linecap="round"/>
<path d="M22 25.4414L26.9149 21.9999" stroke="#426AB2" stroke-width="2" stroke-linecap="round"/>
<line x1="14" y1="29" x2="30" y2="29" stroke="#323232" stroke-width="2" stroke-linecap="round"/>
</svg>
